<svg width="1440" height="628" viewBox="0 0 1440 628" fill="none" xmlns="http://www.w3.org/2000/svg"><path d="M-2.5 221H.998a41.656 41.656 0 0 0 29.752-12.5v0A41.656 41.656 0 0 1 60.502 196h8.703c13.006 0 25.604-5.225 34.874-14.348v0c10.608-10.439 16.009-25.276 14.443-40.076l-1.475-13.951a24.996 24.996 0 0 1 10.486-23.081l3.955-2.779A9.707 9.707 0 0 1 137.07 100v0c1.274 0 2.536.251 3.713.738L146.25 103c4.787 1.981 9.916 3 15.096 3h33.865c10.461 0 20.858-1.642 30.81-4.865l61.833-20.025a39.224 39.224 0 0 0 18.486-12.74v0a39.228 39.228 0 0 1 34.079-14.493L358.5 55.5h63.811c11.338 0 20.991-8.248 22.76-19.448v0c1.705-10.801 10.768-18.916 21.691-19.423l72.813-3.38A78.66 78.66 0 0 0 587-5.5v0m33.5 3l-22.607 19.564a20.525 20.525 0 0 0-5.25 7.021v0A20.51 20.51 0 0 1 573.369 36.1l-69.679-2.05a21.642 21.642 0 0 1-3.352-.36v0a21.642 21.642 0 0 0-22.209 9.594l-12.809 19.99a56.856 56.856 0 0 1-34.517 24.591l-26.751 6.465a60.469 60.469 0 0 1-22.319 1.145l-32.049-4.34a7.71 7.71 0 0 0-7.374 3.252v0a7.712 7.712 0 0 1-4.936 3.193l-51.938 9.618a49.717 49.717 0 0 0-22.26 10.268l-.775.629a45.284 45.284 0 0 0-12.303 15.577v0c-8.177 17.035-26.074 27.202-44.895 25.501l-48.635-4.395a5.639 5.639 0 0 0-4.959 2.154v0a5.64 5.64 0 0 0-1.065 4.633l1.317 6.209a19.302 19.302 0 0 1-2.61 14.386l-27.724 43.443a77.162 77.162 0 0 1-46.332 33.349v0a77.247 77.247 0 0 0-12.051 4.095L28.84 277.961A28.84 28.84 0 0 0 11.5 304.409v0c0 5.917-1.82 11.691-5.213 16.539L-2.5 333.5m0 41l5.352-5.734a25.181 25.181 0 0 1 21.242-7.84v0a25.182 25.182 0 0 0 22.586-9.404l1.779-2.249A30.343 30.343 0 0 0 55 330.454v-4.583a40.73 40.73 0 0 1 11.93-28.8v0a40.73 40.73 0 0 1 17.885-10.44l52.167-14.51a62.885 62.885 0 0 0 23.399-12.271l12.532-10.444A28.031 28.031 0 0 0 183 227.87v0c0-1.908-.195-3.812-.581-5.68l-3.417-16.513a21.767 21.767 0 0 1 3.965-17.554v0a21.768 21.768 0 0 1 17.351-8.623h16.892c4.839 0 9.658-.63 14.335-1.874l33.424-8.893a63.379 63.379 0 0 1 28.288-.986l16.714 3.22a37.058 37.058 0 0 0 37.318-15.063v0a37.08 37.08 0 0 1 13.249-11.572l1.961-1.017a46.006 46.006 0 0 1 7.26-3.009l39.319-12.494a56.792 56.792 0 0 0 18.869-10.257v0a56.792 56.792 0 0 1 32.204-12.793l16.764-1.143a99.95 99.95 0 0 1 18.132.413L543 109.5l22.818 3.63a58.143 58.143 0 0 0 39.478-7.823l8.469-5.181a37.798 37.798 0 0 0 17.829-27.952v0a37.804 37.804 0 0 1 15.552-26.443l9.425-6.748A40.673 40.673 0 0 1 700 36.5v0l33.904 16.367a68.407 68.407 0 0 0 49.69 3.83l7.881-2.403a33.416 33.416 0 0 0 13.236-7.704l2.62-2.482a26.825 26.825 0 0 0 7.894-24.54v0c-1.418-7.372.318-15.001 4.787-21.034L823-5.5m-748.5 0l19.724 16.202A22.659 22.659 0 0 1 102.5 28.21v.824c0 1.305.16 2.605.477 3.871v0a15.96 15.96 0 0 0 9.824 11.053l8.33 3.16a33.006 33.006 0 0 0 25.393-.826l8.919-4.064a56.509 56.509 0 0 1 37.294-3.362l5.814 1.471a73.59 73.59 0 0 0 33.059.701l59.668-12.43a56.909 56.909 0 0 1 15.591-1.057l32.285 2.266c9.671.678 18.374-5.847 20.433-15.32v0a19.513 19.513 0 0 1 6.499-10.781L380-8M-2.5 464.5l6.744-15.689a97.879 97.879 0 0 1 60.665-54.752l15.58-4.881a59.842 59.842 0 0 0 35.83-30.734v0a59.758 59.758 0 0 1 5.063-8.469l16.295-22.757a29.676 29.676 0 0 1 26.635-12.293v0a29.68 29.68 0 0 0 22.21-7.379l37.865-33.619a39.886 39.886 0 0 1 13.868-8.012v0a39.886 39.886 0 0 0 23.508-20.922l.75-1.601a44.004 44.004 0 0 1 35.067-25.079l102.717-11.23a98.039 98.039 0 0 0 50.401-20.751v0A98.047 98.047 0 0 1 511.755 165h94.579c15.242 0 30.283-3.484 43.972-10.186l19.683-9.637a99.982 99.982 0 0 0 14.307-8.551l14.343-10.286a100.005 100.005 0 0 1 63.22-18.616l83.689 4.141a99.994 99.994 0 0 0 44.097-7.863l7.391-3.145a86.959 86.959 0 0 1 38.503-6.83l36.565 1.876a32.095 32.095 0 0 0 30.616-18.24l1.59-3.338a23.974 23.974 0 0 1 15.17-12.76v0c1.34-.376 2.65-.868 3.91-1.472L1052.75 46l3.44-1.65A100 100 0 0 0 1099.46 4.3l1.04-1.801 5.5-8m81.5 8v0a30.889 30.889 0 0 1-15.76 13.4L1132 31l-78.53 32.823a99.99 99.99 0 0 0-28.77 18.336l-19.65 17.902a100.02 100.02 0 0 1-41.641 22.713l-55.248 14.694a50.368 50.368 0 0 1-29.93-1.258v0a50.366 50.366 0 0 0-36.991 1.193l-7.704 3.335a71.614 71.614 0 0 0-14.138 8.145l-19.621 14.511a100.003 100.003 0 0 1-48.706 19.02l-118.213 12.79a99.99 99.99 0 0 1-14.753.5L563 193.5h-77v0a99.431 99.431 0 0 0-47.414 17.456L428.5 218l-27 15.5-11.337 8.839a81.166 81.166 0 0 0-26.182 35.751v0a81.17 81.17 0 0 1-41.265 45.057l-21.26 10.099a99.946 99.946 0 0 0-16.902 10.184l-21.212 15.83a18.456 18.456 0 0 0-6.244 8.313v0a18.464 18.464 0 0 1-9.26 10.143l-16.849 8.134a48.13 48.13 0 0 1-40.306.711v0a48.128 48.128 0 0 0-34.947-1.49l-1.232.421a51.463 51.463 0 0 0-29.82 26.572L124 413.5v0a31.786 31.786 0 0 1-31.573 20.035l-31.205-1.981a21.013 21.013 0 0 0-15.264 5.241v0a21.014 21.014 0 0 0-5.653 23.347l6.135 15.774a45.311 45.311 0 0 1 .545 31.369l-1.176 3.366a54.978 54.978 0 0 1-29.411 32.033L-5.5 552.5m95-470l-1.951 6.287a36.473 36.473 0 0 0-1.16 16.7v0a36.472 36.472 0 0 1-10.84 32.3l-2.529 2.408a43.08 43.08 0 0 1-35.57 11.484L32.5 151l-18.328-3.666a23.027 23.027 0 0 0-8.367-.122v0c-12.38 2.103-24.16-6.107-26.474-18.449l-1.667-8.89a32.218 32.218 0 0 1 9.076-28.91L4.5 73.5l18.89-23.964c8.209-10.415 23.106-12.64 34.001-5.081v0a25.09 25.09 0 0 0 11.283 4.293v0c14.484 1.756 24.427 15.448 21.61 29.763L89.5 82.5zm132 271.5c-2.184 2.184-15.017 5.912-22.837 7.948a6.53 6.53 0 0 1-4.217-.328v0a6.634 6.634 0 0 1-3.891-7.397l.591-2.951a10.34 10.34 0 0 1 4.508-6.645l23.893-15.515a77.947 77.947 0 0 0 18.99-17.405l10.736-13.749a46.803 46.803 0 0 1 25.015-16.468l3.523-.924a35.961 35.961 0 0 0 19.155-12.569l5.84-7.431a12.715 12.715 0 0 1 8.319-4.749l.166-.022a12.504 12.504 0 0 1 13.291 7.822v0a12.504 12.504 0 0 1-.222 9.673l-3.312 7.411a31.846 31.846 0 0 1-16.4 16.225l-5.904 2.562a48.42 48.42 0 0 0-16.12 11.379l-10.77 11.539c-11.388 12.202-25.783 21.025-41.281 27.219-4.604 1.84-8.159 3.461-9.073 4.375zM733.741 18.561l-5.914-6.76a10.433 10.433 0 0 1-2.407-8.768v0A10.433 10.433 0 0 1 735.678-5.5h37.031c4.516 0 7.659 4.487 6.116 8.731v0a6.51 6.51 0 0 0 .029 4.527l2.633 6.957a11.526 11.526 0 0 1-5.149 14.136v0a11.526 11.526 0 0 1-8.132 1.195l-11.823-2.628a17.578 17.578 0 0 0-3.812-.418h-12.483A5.088 5.088 0 0 1 735 21.912v0a5.086 5.086 0 0 0-1.259-3.35zM585.833 76.333v0a6.858 6.858 0 0 0-4.442-7.813l-8.587-3.03a17.357 17.357 0 0 0-5.777-.99h-7.945a63.74 63.74 0 0 1-25.984-5.537l-10.373-4.63A26.856 26.856 0 0 0 511.778 52h-3.603a18.973 18.973 0 0 0-14.35 6.562l-.411.474a18.219 18.219 0 0 0-.446 23.299v0a18.218 18.218 0 0 0 16.877 6.644l19.812-2.914a53.12 53.12 0 0 1 7.727-.565h25.735c2.244 0 4.479-.297 6.645-.882l11.134-3.01a6.857 6.857 0 0 0 4.935-5.275zm-269.85 70.735v0a7.758 7.758 0 0 0-1.405-9.943l-2.752-2.446a12.096 12.096 0 0 0-12.95-2.013l-17.245 7.665a4.43 4.43 0 0 0-2.631 4.048v0a4.43 4.43 0 0 0 4.11 4.419l25.752 1.866a7.758 7.758 0 0 0 7.121-3.596zM1446.17 164.05l-14.29 11.222a99.975 99.975 0 0 0-29.55 37.929l-13.1 29.4a22.22 22.22 0 0 1-6.58 8.424v0a22.155 22.155 0 0 0-7.36 10.44l-3.73 11.189-32.39 83.554a10.314 10.314 0 0 1-4.69 5.342v0c-.83.457-1.73.796-2.66 1.007l-6.77 1.537a60.237 60.237 0 0 0-13.88 5.011l-26.18 13.268a63.828 63.828 0 0 1-61.57-2.125l-25.48-15.205a23.404 23.404 0 0 0-27.58 2.632v0a22.986 22.986 0 0 0-3.17 3.46l-19.03 25.464a57.181 57.181 0 0 0-7.85 14.51v0a56.786 56.786 0 0 1-27.09 30.884l-76.33 39.803a15.702 15.702 0 0 1-16.65-1.334v0a15.715 15.715 0 0 0-9.39-3.114h-2.26c-3.31 0-6.59.734-9.59 2.148l-7.72 3.637a60.64 60.64 0 0 1-42.587 3.43l-36.855-10.583a33.093 33.093 0 0 0-31.573 7.484l-8.322 7.679c-7.033 6.488-8.371 17.098-3.169 25.128v0a19.654 19.654 0 0 1 1.693 18.129l-1.068 2.608a25.042 25.042 0 0 1-25.836 15.416l-44.322-4.731a84.372 84.372 0 0 1-23.137-5.864l-53.642-22.061c-32.052-13.181-68.839.675-84.231 31.726l-1.51 3.047a40.658 40.658 0 0 0-3.47 10.236v0a40.653 40.653 0 0 1-10.496 20.261l-10.863 11.372a94.414 94.414 0 0 0-20.217 32.294l-1.97 5.293M1452 223.607l-4.34 3.554a100.028 100.028 0 0 0-31.15 44.763l-13.25 38.465a54.641 54.641 0 0 1-28.41 31.637v0a54.406 54.406 0 0 0-14.2 9.655l-37.93 35.684a100.042 100.042 0 0 1-25.99 17.678l-23.36 10.973a58.909 58.909 0 0 1-40.79 3.454v0a58.9 58.9 0 0 0-33.59.632l-21.64 6.882a78.913 78.913 0 0 0-39.81 28.667v0a78.85 78.85 0 0 1-20.66 19.587l-69.53 45.289a87.98 87.98 0 0 1-14.08 7.453l-15.02 6.284a43.538 43.538 0 0 1-29.881 1.36l-3.779-1.19a27.447 27.447 0 0 0-13.118-.833v0a27.459 27.459 0 0 0-22.045 21.573l-2.374 11.722a19.288 19.288 0 0 1-7.116 11.436v0a19.283 19.283 0 0 1-13.506 3.942l-92.916-8.334-77.211-7.578a48.278 48.278 0 0 0-18.597 1.808v0a48.289 48.289 0 0 0-16.67 8.857l-16.7 13.649a29.209 29.209 0 0 0-8.653 11.809v0a29.209 29.209 0 0 1-23.453 18.169l-6.17.785a22.81 22.81 0 0 0-17.591 12.558v0m40.843 0l6.251-7.006 17.699-17.167a75.82 75.82 0 0 1 8.464-7.089v0a75.812 75.812 0 0 1 45.796-14.289l95.855 1.869c4.813.094 9.613.535 14.363 1.32l42.299 6.994a60.458 60.458 0 0 0 16.227.473l22.842-2.42a20.267 20.267 0 0 0 16.315-11.772v0a20.266 20.266 0 0 1 8.399-9.215l21.607-12.342a97.134 97.134 0 0 1 33.43-11.671l71.83-11.059a65.97 65.97 0 0 0 40.05-22.272v0a65.896 65.896 0 0 1 34.11-21.075l53.76-13.422v0a84.675 84.675 0 0 0 51.46-32.914l14.65-19.991a100.054 100.054 0 0 1 21.01-21.146l45.83-34.051 23.49-22.266a34.568 34.568 0 0 0 10.22-18.861v0a34.58 34.58 0 0 1 14.14-22.063L1452 289.67m-5.83 22.521l-7.61 5.176a86.372 86.372 0 0 0-27.4 30.358v0l-3.11 6.167a99.933 99.933 0 0 1-24.14 30.886l-21.52 18.5-22.64 18.405a16.367 16.367 0 0 0-5.67 9.216v0a16.516 16.516 0 0 1-3.42 6.984l-.95 1.137a22.509 22.509 0 0 0-3.15 5.007l-13.96 30.412a36.282 36.282 0 0 1-24.31 20.105v0a36.287 36.287 0 0 0-24.7 20.972l-3.57 8.342a54.486 54.486 0 0 1-46.23 32.92l-28.86 2.05c-5.24.373-9.94 3.39-12.46 8.006v0a15.461 15.461 0 0 0-.23 14.337l2.93 5.816a27.802 27.802 0 0 0 12.82 12.581l4.64 2.232c11.45 5.499 19.91 15.89 23.06 28.193v0m-76.68 0v-1.208c0-9.681-5.5-18.524-14.17-22.814v0l-7.79-4.944a71.543 71.543 0 0 0-60.54-7.616v0a71.345 71.345 0 0 1-12.82 2.914l-73.058 9.646-47.095 4.504-30.256 3.545a100.006 100.006 0 0 1-41.211-3.795l-26.029-8.058a29.933 29.933 0 0 0-14.429-.815l-13.834 2.623a12.934 12.934 0 0 0-10.524 12.707v0c0 3.979-1.832 7.737-4.967 10.188L769.333 637m588.897-3.003v0a72.617 72.617 0 0 0 2.29-57.034l-2.29-6.026-3.62-10.927a99.992 99.992 0 0 1-.48-61.379l3.46-11.035a69.618 69.618 0 0 1 27.52-36.881v0a69.567 69.567 0 0 0 22.08-24.14l5.46-9.918a100.61 100.61 0 0 1 10.01-14.848l29.34-36.067m-5.83 18.518l-12.01 25.126a69.18 69.18 0 0 1-6.06 10.276v0a68.573 68.573 0 0 0-12.65 43.753l.73 12.805a47.036 47.036 0 0 1-6.32 26.377v0a47.084 47.084 0 0 0-5.88 16.691l-3.11 20.703a38.498 38.498 0 0 0 3.53 22.748v0a38.527 38.527 0 0 1 2.28 28.309l-.79 2.557a23.263 23.263 0 0 0-.83 3.778v0a24.212 24.212 0 0 0 8.2 21.711l11.38 9.785a24.097 24.097 0 0 0 21.53 5.118v0M986.886 637v0a73.09 73.09 0 0 1 34.304-18.532l13.65-3.128a88.486 88.486 0 0 1 42.29.678l7.92 2.083c.96.254 1.89.611 2.77 1.066v0a13.686 13.686 0 0 1 7.43 12.166v2.664m-548.889-4.004l24.653-13.788a19.856 19.856 0 0 0 8.455-9.271l5.493-12.367a4.954 4.954 0 0 0-2.091-6.324v0a4.955 4.955 0 0 0-5.825.697l-10.892 10.203a25.273 25.273 0 0 1-17.277 6.828h-4.821a37.47 37.47 0 0 0-27.583 12.108l-10.955 11.914m-72.518 0v0a93.516 93.516 0 0 1 33.444-38.558l3.426-2.244a99.997 99.997 0 0 1 33.931-14.147l16.776-3.579a66.9 66.9 0 0 0 43.267-30.771v0a66.912 66.912 0 0 1 12.194-14.82l29.751-27.077a38.248 38.248 0 0 0 4.84-5.318l4.683-6.235a27.722 27.722 0 0 1 31.606-9.417v0a27.719 27.719 0 0 0 14.269 1.233l23.504-4.157a100.01 100.01 0 0 1 45.348 2.451l44.712 13.007v0c8.776 1.317 16.67-5.48 16.67-14.356v-3.803c0-5.01 2.113-9.788 5.819-13.16l7.759-7.058a26.704 26.704 0 0 1 30.542-3.806v0a26.701 26.701 0 0 0 12.572 3.146h71.02c6.205 0 12.07-2.835 15.925-7.696v0a20.32 20.32 0 0 1 5.294-4.693l5.809-3.566a58.913 58.913 0 0 0 16.731-15.426l1.741-2.381a73.884 73.884 0 0 1 49.547-29.573l33.09-4.559a100.132 100.132 0 0 0 23.51-6.225l9.49-3.799a49.135 49.135 0 0 1 8.51-2.546l4.6-.933a40.322 40.322 0 0 0 28.98-23.49v0a40.518 40.518 0 0 1 6.56-10.423l.81-.931a48.507 48.507 0 0 1 11.8-9.849l18.78-11.15a39.192 39.192 0 0 1 25.02-5.167l15.81 2.041c5.8.749 10.62 4.859 12.27 10.475v0a14.75 14.75 0 0 0 10.07 10.019l13.76 3.966a20.499 20.499 0 0 0 17.84-3.198v0c8.76-6.462 10.95-18.646 4.97-27.747l-2.33-3.554a24.945 24.945 0 0 1-4.1-13.714v-7.451a29.61 29.61 0 0 1 15.47-26.023v0a29.615 29.615 0 0 1 14.15-3.599h7.61c14.67 0 28.82-5.417 39.75-15.213l11.91-10.681a45.655 45.655 0 0 1 8.84-6.221l2.01-1.089a41.38 41.38 0 0 0 21.26-30.3v0a41.428 41.428 0 0 1 18.58-28.718l24.89-15.971a24.545 24.545 0 0 0 10.26-13.632v0a24.567 24.567 0 0 1 13.52-15.393l4.3-1.914M541.777 510.38l-1.499.787a9.665 9.665 0 0 0-5.17 8.556v0a9.665 9.665 0 0 0 4.302 8.04l.638.426a11.102 11.102 0 0 0 12.529-.142l6.016-4.215a17.484 17.484 0 0 0 4.619-4.776l2.686-4.121a9.182 9.182 0 0 0 .402-9.349v0c-2.616-4.887-8.932-6.36-13.44-3.135l-11.083 7.929zM1280.5 298.023l5.29-2.932c.5-.277 1.02-.515 1.56-.71l5-1.821a12.073 12.073 0 0 0 7.95-11.341v0c0-6.665-5.49-12.069-12.15-12.069v0c-3.15 0-6.21 1.218-8.48 3.398l-1.52 1.465a17.413 17.413 0 0 0-5.36 12.576v6.891c0 .786.18 1.562.52 2.269v0a5.195 5.195 0 0 0 7.19 2.274zM664.342 565.819l-1.219 3.905a6.007 6.007 0 0 1-5.734 4.216v0a6.007 6.007 0 0 0-5.227 3.047l-.773 1.366c-2.482 4.382-.736 9.949 3.803 12.129l4.818 2.314a13.695 13.695 0 0 0 11.222.287l3.536-1.481a22.23 22.23 0 0 0 12.131-12.451l3.817-9.824a33.178 33.178 0 0 1 3.948-7.292l4.243-5.921a22.295 22.295 0 0 0 .726-24.894l-.689-1.09a9.03 9.03 0 0 1-.776-1.54v0a8.958 8.958 0 0 0-9.708-5.61l-6.525 1a17.184 17.184 0 0 0-10.041 5.349l-5.032 5.467a19.791 19.791 0 0 0-3.856 20.645l1.06 2.695a11.573 11.573 0 0 1 .276 7.683zm247.511-17.075l4.288-6.579a21.54 21.54 0 0 0 1.928-3.701l4.709-11.687a10.738 10.738 0 0 1 2.155-3.359v0c4.66-4.924 3.631-12.884-2.128-16.462l-7.833-4.865a14.044 14.044 0 0 0-11.083-1.624l-2.094.568a9.853 9.853 0 0 0-6.68 6.137v0a9.86 9.86 0 0 0-.103 6.451l3.37 10.252a20.86 20.86 0 0 1 .514 11.189l-1.057 4.603a10.011 10.011 0 0 0 1.465 7.851l.898 1.327a6.994 6.994 0 0 0 5.792 3.074v0a6.993 6.993 0 0 0 5.859-3.175zm406.067 30.332v0a21.239 21.239 0 0 0-18.54-14.807l-9.83-.802a35.887 35.887 0 0 0-30.77 13.137l-.92 1.125a31.224 31.224 0 0 1-10.26 8.23l-6.48 3.242a8.72 8.72 0 0 0-3.81 3.736v0c-2.1 3.982-.81 8.904 2.96 11.358l11.26 7.324c1.39.903 2.87 1.656 4.42 2.248l1.34.513a36.97 36.97 0 0 0 11.37 2.392l14.05.695a33.485 33.485 0 0 0 30.71-16.792l2.67-4.648a21.217 21.217 0 0 0 1.83-16.951z" stroke="#fff" stroke-linecap="round" stroke-linejoin="round"/><path d="M1452 143l-32.15 23.978a99.977 99.977 0 0 0-30.17 36.471l-6.19 12.746a100.27 100.27 0 0 1-16.63 24.31l-30.92 33.333a60.195 60.195 0 0 0-16.06 40.926v10.347c0 10.857-4.7 21.181-12.9 28.301v0a37.507 37.507 0 0 1-15.26 8.011l-31 7.961a55.818 55.818 0 0 1-48.36-10.164v0l-15.19-14.893a33.668 33.668 0 0 0-23.58-9.632v0c-15.04 0-28.26 9.979-32.38 24.448l-2.25 7.903a44.868 44.868 0 0 1-4.67 10.756l-3.03 5.037a88.836 88.836 0 0 1-61.21 41.79l-15.59 2.656a63.782 63.782 0 0 0-11.5 3.091l-37.51 13.951a6.118 6.118 0 0 0-3.98 5.73v0a6.113 6.113 0 0 1-4.615 5.927l-35.283 8.921a52.882 52.882 0 0 1-15.458 1.553l-103.101-4.888a22.962 22.962 0 0 0-22.104 13.69l-2.279 5.181a13.122 13.122 0 0 0 1.405 13.011l.232.317c3.935 5.402 3.012 12.93-2.114 17.22v0a12.701 12.701 0 0 1-10.594 2.725l-52.818-10.347c-26.534-3.003-78.936-9.71-76.269-12.513 1.752-1.841-13.9 5.142-30.281 12.752-15.494 7.197-27.843 19.74-35.056 35.227l-7.019 15.072a42.06 42.06 0 0 1-31.123 23.714v0a42.06 42.06 0 0 0-9.438 2.76l-18.073 7.676a80.892 80.892 0 0 1-24.034 6.079v0a80.887 80.887 0 0 0-50.866 24.62L458 634M-5.5 420.5L5 412l23.434-17.855a57.297 57.297 0 0 1 17.751-9.148l7.652-2.372C73.26 376.604 86.5 358.556 86.5 338.221v0c0-5.099.852-10.181 2.52-15v0a45.796 45.796 0 0 1 24.562-26.817L162.5 274.5l33.827-17.889c11.652-6.162 20.476-16.763 24.516-29.309v0a49.857 49.857 0 0 1 9.894-17.501l9.146-10.454c9.232-10.55 24.362-13.659 37.006-7.604v0a31.24 31.24 0 0 0 27.974-.495l11.169-5.842a56.422 56.422 0 0 1 15.751-5.459L347.5 177l49.402-10.794a86.516 86.516 0 0 0 19.392-6.728l20.371-9.91a22.92 22.92 0 0 1 15.275-1.7v0a22.917 22.917 0 0 0 17.041-2.657l25.53-15.318a37.847 37.847 0 0 1 19.472-5.393h11.175a20.237 20.237 0 0 1 18.31 11.619v0a20.234 20.234 0 0 0 21.661 11.34l12.628-2.12a17.599 17.599 0 0 0 8.777-4.203v0a17.599 17.599 0 0 1 16.991-3.628l3.809 1.203a24.632 24.632 0 0 0 11.524.799l10.721-1.812a32.955 32.955 0 0 0 25.479-21.232v0a32.945 32.945 0 0 1 11.588-15.39l5.122-3.725a42.239 42.239 0 0 1 19.441-7.733l14.513-1.872a12.032 12.032 0 0 0 8.776-5.742v0a12.029 12.029 0 0 1 13.028-5.53l34.711 8.034a61.004 61.004 0 0 0 21.716 1.05l16.311-2.145a38.113 38.113 0 0 1 20.611 3.03v0a38.107 38.107 0 0 0 21.113 2.962l34.234-4.97c9.32-1.352 15.843-9.913 14.675-19.258v0a17.294 17.294 0 0 1 8.262-16.973l11.391-6.834A37.68 37.68 0 0 1 929.938 36h40.147a52.412 52.412 0 0 0 29.897-9.363l8.558-5.94A32.517 32.517 0 0 0 1022.5-6v0" stroke="#fff" stroke-linecap="round" stroke-linejoin="round" stroke-dasharray="4 8"/></svg>