<svg width="1140" height="977" viewBox="0 0 1140 977" fill="none" xmlns="http://www.w3.org/2000/svg">
<mask id="mask0" mask-type="alpha" maskUnits="userSpaceOnUse" x="0" y="0" width="1140" height="977">
<rect width="1140" height="977" fill="#263940"/>
</mask>
<g mask="url(#mask0)">
<path opacity="0.5" d="M-7.5 130L7.15721 133.324C28.656 138.2 51.2129 133.523 69 120.5V120.5V120.5C77.9814 111.839 89.9718 107 102.449 107H157.031C161.263 107 165.414 105.842 169.036 103.653L171.833 101.961C179.522 97.312 182.942 87.939 180.052 79.4304V79.4304C177.593 72.1909 179.679 64.1826 185.358 59.0628L199.516 46.2968C204.012 42.2434 209.85 40 215.903 40V40C224.085 40 231.726 35.9108 236.265 29.1029L242.789 19.3167C247.491 12.2637 250 3.97666 250 -4.5V-4.5M271 -4.5L265 18.5L259.225 32.3603C253.425 46.2795 241.347 56.6077 226.697 60.1764L222.379 61.2282C215.001 63.0253 208.427 67.216 203.684 73.1453V73.1453C200.598 77.003 198.38 81.481 197.182 86.2738L196.023 90.9092C192.781 103.878 185.026 115.267 174.148 123.037L168.545 127.039C155.833 136.119 140.603 141 124.981 141H86.5153C82.3773 141 78.4431 142.796 75.733 145.924V145.924C74.265 147.617 73.2167 149.633 72.6731 151.808L71.6505 155.898C69.9325 162.77 65.9769 168.875 60.4069 173.252L52.3472 179.584C44.8826 185.449 36.1682 189.517 26.8788 191.473L3 196.5M3 248.5L41.0225 236.278C43.3927 235.517 45 233.312 45 230.822V230.822C45 229.043 45.8265 227.364 47.2369 226.279L58 218L64.2712 213.439C74.494 206.004 82.1004 195.524 86 183.5V183.5L90.8001 171.121C93.6331 163.815 100.664 159 108.5 159V159L160.208 155.984C165.653 155.666 170.936 154.017 175.595 151.181V151.181C178.514 149.404 181.143 147.189 183.388 144.613L207.467 116.994C211.762 112.067 214.842 106.201 216.459 99.867L218.722 91.0036C219.551 87.7603 221.434 84.8846 224.076 82.8295V82.8295C227.229 80.3772 231.226 79.2758 235.19 79.7669L277.955 85.0652C282.875 85.6748 287.866 84.8171 292.3 82.6V82.6C296.983 80.2584 300.819 76.5143 303.273 71.8893L306.604 65.6113C310.146 58.9363 309.147 50.7606 304.103 45.1343V45.1343C301.139 41.8283 299.5 37.5444 299.5 33.1043V-4.5M312.5 -4.5V14.9763C312.5 23.7104 315.585 32.1637 321.211 38.8444V38.8444C325.962 44.4862 328.921 51.4175 329.71 58.751L331.437 74.8144C332.723 86.7754 327.852 98.5719 318.502 106.141V106.141C314.547 109.343 309.949 111.655 305.02 112.92L281.953 118.843C277.688 119.938 273.257 120.235 268.884 119.717L233.933 115.583C231.308 115.273 229 117.324 229 119.967V119.967C229 120.321 228.957 120.674 228.873 121.017L225.588 134.434C223.927 141.215 219.712 147.092 213.822 150.84V150.84C209.06 153.871 205.364 158.314 203.25 163.548L201.582 167.678C197.976 176.607 191.342 183.98 182.842 188.506L176.661 191.797C164.341 198.357 150.002 200.036 136.5 196.5V196.5L109.345 190.015C105.422 189.078 101.297 190.316 98.5386 193.259V193.259C96.5864 195.341 95.5 198.088 95.5 200.943V208.659C95.5 211.866 94.998 215.054 94.0123 218.107L89.0935 233.339C83.2206 251.526 71.1125 267.055 54.9057 277.184L36.2117 288.868C30.9321 292.167 27.0902 297.336 25.4521 303.342V303.342C23.293 311.259 17.3504 317.591 9.5865 320.247L3 322.5M78 -4.5V-4.17471C78 13.2387 88.3255 28.9946 104.292 35.9447L113.432 39.9234C117.966 41.897 121.557 45.5537 123.447 50.1228L123.601 50.4947C125.456 54.9766 129.03 58.5278 133.524 60.3534L134.627 60.8017C139.546 62.8 145.138 62.2098 149.532 59.2286V59.2286C153.89 56.271 156.5 51.346 156.5 46.0787V41.4876C156.5 37.5535 155.555 33.677 153.744 30.1845L148.484 20.0408C144.552 12.458 142.5 4.04153 142.5 -4.5V-4.5M3 439V439C5.23472 439 7.37146 438.083 8.91062 436.463L12.0442 433.164C14.6223 430.45 17.9536 428.57 21.6093 427.766L33.3346 425.186C38.3675 424.079 43.0508 421.751 46.9715 418.407V418.407C53.9694 412.438 58 403.702 58 394.505V375.5V344.787C58 337.127 61.8882 329.991 68.3244 325.839V325.839C71.7127 323.653 75.6253 322.416 79.6544 322.256L104.98 321.251C125.495 320.437 145.262 313.328 161.597 300.889L181.252 285.923C187.726 280.993 194.778 276.871 202.252 273.65L220 266L252.676 255.697C265.917 251.522 274.318 238.522 272.686 224.734V224.734C271.624 215.766 274.916 206.719 281.412 200.447V200.447C284.087 197.865 287.267 195.777 290.708 194.369L290.936 194.276C294.61 192.773 298.542 192 302.512 192H303.5L348.5 188.5L382.239 183.58C391.112 182.286 398.696 176.518 402.312 168.312L407.163 157.304C408.572 154.107 407.872 150.372 405.402 147.902V147.902C403.569 146.069 402.677 143.498 402.979 140.925L405.622 118.46C406.151 113.964 409.389 110.254 413.774 109.123V109.123C418.616 107.873 422 103.505 422 98.5041V82.0635C422 78.3818 421.368 74.7274 420.133 71.2593L412.453 49.7056C408.581 38.841 408.203 27.0379 411.372 15.9479V15.9479C412.784 11.0068 413.5 5.89293 413.5 0.754022V-4.5M427.5 -4.5V-0.403222C427.5 5.52055 428.026 11.4326 429.073 17.2632L432.015 33.6558C433.652 42.7742 437.269 51.4225 442.611 58.991L446.662 64.729C454.212 75.4255 456.979 88.7782 454.301 101.594V101.594C452.471 110.351 448.191 118.407 441.957 124.823L434.5 132.5V132.5C426.329 142.959 421.24 155.491 419.806 168.685L419.5 171.5L414.597 203.368C413.883 208.007 411.743 212.309 408.472 215.676V215.676C401.397 222.959 390.333 224.628 381.425 219.756L369.123 213.028C366.054 211.35 362.782 210.07 359.388 209.222L354.288 207.947C347.787 206.322 341.112 205.5 334.41 205.5H301.702C298.383 205.5 295.212 206.874 292.942 209.295V209.295C290.45 211.953 289.3 215.599 289.815 219.206L291.748 232.734C293.195 242.867 290.75 253.171 284.905 261.574L284.695 261.877C280.317 268.169 277.772 275.552 277.342 283.204L276.433 299.399C275.853 309.716 269.964 318.995 260.875 323.912V323.912C251.118 329.19 239.184 328.57 229.993 322.36V322.36C227.684 320.8 225.592 318.916 223.802 316.78L218.91 310.941C213.896 304.957 206.49 301.5 198.684 301.5V301.5C193.665 301.5 188.751 302.931 184.517 305.625L180 308.5V308.5C169.118 316.084 156.782 321.328 143.77 323.9L120.5 328.5L101.936 333.945C90.4106 337.326 81.9376 347.149 80.2852 359.046L79.0859 367.682C78.4088 372.557 80.2491 377.442 83.974 380.659V380.659C87.1655 383.416 89 387.424 89 391.641V399.135C89 410.977 82.2282 421.777 71.5681 426.935L64.0052 430.594C60.0242 432.521 55.7771 433.84 51.4052 434.508L43.679 435.688C29.4095 437.868 15.8139 443.233 3.90053 451.384L3 452M-10 98.5V98.5C3.70366 102.089 18.1554 101.615 31.5943 97.1352L37.5686 95.1438C39.846 94.3847 42.0121 93.3253 44.0095 91.9937L57.6846 82.877C61.0214 80.6524 62.2148 76.3127 60.4844 72.6947V72.6947C58.9983 69.5874 55.7017 67.7681 52.2805 68.1673L34.8084 70.2057C30.4731 70.7115 26.1262 69.3604 22.8414 66.4862V66.4862C18.6187 62.7914 12.725 61.6756 7.44394 63.5714L-3.5 67.5M333.5 235L326.009 227.509C324.165 225.665 321.437 225.021 318.963 225.846V225.846C315.382 227.039 313.43 230.892 314.585 234.485L315.283 236.657C316.337 239.937 315.468 243.532 313.031 245.969L310.148 248.852C307.172 251.828 305.5 255.864 305.5 260.073V265.606C305.5 267.531 305.31 269.451 304.932 271.338L304.587 273.063C303.868 276.661 303.765 280.356 304.284 283.989L305.317 291.217C305.437 292.058 305.774 292.853 306.296 293.523V293.523C308.803 296.746 313.923 295.648 314.889 291.68L316.463 285.206C316.814 283.763 317.555 282.445 318.605 281.395L326 274L331.308 269.647C341.951 260.92 342.958 244.998 333.5 235V235ZM35 479L29.6855 481.248C24.8292 483.303 21.1742 487.459 19.7569 492.538L19.4014 493.812C17.4168 500.923 20.6644 508.455 27.1977 511.894L30.5461 513.656C33.3116 515.111 36.6361 515.018 39.3158 513.41V513.41C42.6924 511.385 44.3473 507.389 43.3923 503.569L42.8772 501.509C41.7372 496.949 43.4092 492.147 47.1349 489.281L59.7585 479.57C60.2485 479.193 60.6633 478.728 60.9813 478.198V478.198C62.3757 475.874 61.6353 472.86 59.3229 471.447L57.7998 470.517C55.7564 469.268 53.2036 469.198 51.095 470.333L35 479ZM114.084 365.516L114.416 364.106C114.97 361.754 113.185 359.5 110.768 359.5V359.5C109.374 359.5 108.095 360.274 107.448 361.509L106.776 362.792C105.25 365.705 107.763 369.093 110.993 368.477V368.477C112.518 368.187 113.729 367.027 114.084 365.516ZM456.042 138.516L454.826 136.927C454.615 136.65 454.5 136.311 454.5 135.963V135.963C454.5 134.605 452.906 133.874 451.877 134.761L441.003 144.135C440.343 144.704 439.82 145.416 439.474 146.216V146.216C437.216 151.439 443.079 156.433 447.876 153.372L454.118 149.39C457.821 147.028 458.709 142.004 456.042 138.516Z" stroke="#008E8E"/>
<path opacity="0.5" d="M0 392.5L12.8091 385.151C24.0507 378.7 31.9582 367.709 34.5 355V355V355C39.0564 338.076 48.7035 322.962 62.1352 311.703L68.3164 306.522C73.095 302.516 77.4885 298.072 81.4394 293.248L118.5 248L119.886 246.225C129.109 234.408 143.263 227.5 158.253 227.5V227.5C164.363 227.5 170.418 226.349 176.103 224.108L206.379 212.173C214.619 208.924 220.798 201.917 222.989 193.335V193.335C224.61 186.986 228.438 181.422 233.787 177.639L239.935 173.29C243.869 170.508 246.776 166.507 248.207 161.907L251.085 152.656C252.224 148.994 255.612 146.5 259.447 146.5V146.5C261.725 146.5 263.914 147.388 265.549 148.976L271.75 155C277.361 160.451 284.876 163.5 292.699 163.5H326.284C334.949 163.5 343.141 159.545 348.53 152.759V152.759C351.78 148.666 353.838 143.755 354.478 138.568L356.582 121.505C357.437 114.567 362.46 108.865 369.234 107.14L373.978 105.933C380.361 104.308 384.247 97.8474 382.69 91.4471V91.4471C381.648 87.1659 378.348 83.7979 374.088 82.6705L373.223 82.4413C367.693 80.9776 363.683 76.1928 363.208 70.4925L362.482 61.7879C361.858 54.3011 364.516 46.9124 369.765 41.538L371.138 40.1323C378.231 32.8702 381.202 22.5305 379.046 12.6107L375 -6" stroke="#008E8E" stroke-linecap="round" stroke-dasharray="4 8"/>
<path opacity="0.5" d="M590 995.957V995.957C595.553 979.303 610.027 967.208 627.402 964.701L641.497 962.667C656.948 960.438 669.865 949.776 674.984 935.028V935.028C677.289 928.388 681.232 922.436 686.45 917.726L718.557 888.736C720.61 886.882 723.148 885.648 725.874 885.178V885.178C734.44 883.702 739.835 875.125 737.457 866.765L726.268 827.423C723.415 817.391 725.768 806.598 732.537 798.664V798.664C738.481 791.697 741.061 782.469 739.592 773.43L738.224 765.016C735.008 745.234 744.703 725.591 762.361 716.112V716.112C767.721 713.234 772.471 709.342 776.347 704.653L793.315 684.119C803.809 671.421 820.131 665.066 836.449 667.324L846.345 668.694C852.212 669.506 857.532 672.567 861.183 677.23V677.23C865.507 682.754 872.133 685.981 879.148 685.981H902.086C905.347 685.981 908.557 686.799 911.42 688.36V688.36C921.445 693.827 934.001 689.547 938.601 679.097L942.378 670.515C944.331 666.079 947.633 662.371 951.815 659.921V659.921C960.1 655.066 970.529 655.86 977.983 661.915L981.448 664.729C985.66 668.15 990.734 670.341 996.112 671.063L1023.23 674.699C1035.47 676.34 1046.86 668.151 1049.21 656.028V656.028L1054.39 624.012C1056.01 613.981 1060.43 604.611 1067.13 596.973L1070.63 592.986C1083.33 578.517 1103.64 573.391 1121.68 580.102V580.102V580.102C1137.87 588.193 1156.42 590.228 1173.97 585.841L1183 583.585" stroke="#008E8E" stroke-linecap="round" stroke-linejoin="round" stroke-dasharray="4 8"/>
<path opacity="0.5" d="M1160.04 718L1140.18 732.306C1133.63 737.023 1128.75 743.7 1126.25 751.372V751.372C1122.16 763.922 1111.85 773.452 1099.01 776.551L1039.95 790.81C1024.55 794.529 1011.19 804.092 1002.71 817.478V817.478V817.478C996.927 827.699 987.225 835.118 975.846 838.019L936.657 848.009C929.563 849.818 923.673 854.746 920.642 861.41V861.41C919.213 864.549 918.474 867.959 918.474 871.408V880.024C918.474 884.69 918.985 889.341 919.998 893.895L924.161 912.615C924.992 916.35 924.675 920.248 923.254 923.8V923.8C920.367 931.011 913.382 935.739 905.615 935.739H902.463H892.983C881.159 935.739 869.626 940.228 860.835 948.134V948.134C856.191 952.311 850.69 955.57 844.785 957.605L826.51 963.902C818.639 966.614 813.356 974.022 813.356 982.348V982.348M1167 693.652L1146.21 701.102C1135.71 704.861 1126.58 711.676 1120 720.669L1112.79 730.516C1110.47 733.684 1109.22 737.508 1109.22 741.433V741.433C1109.22 749.444 1104.06 756.542 1096.44 759.012L1063.25 769.766C1059.56 770.963 1055.77 771.834 1051.93 772.369L1026.22 775.945C1011.17 778.041 997.551 786.021 988.365 798.138V798.138C986.329 800.823 984.531 803.686 982.997 806.687V806.687C974.415 823.465 958.176 835.021 939.509 837.612L910.124 841.69C900.204 843.067 891.759 849.6 887.933 858.855L886.301 862.803C883.01 870.766 884.747 879.923 890.726 886.128L891.455 886.884C896.143 891.749 898.022 898.673 896.435 905.241V905.241C894.971 911.301 890.734 916.315 885.003 918.769L879.497 921.128C876.277 922.506 872.811 923.217 869.309 923.217H868.09C859.257 923.217 851.146 928.099 847.011 935.904V935.904C843.37 942.777 836.607 947.444 828.889 948.408L808.77 950.921C791.246 953.11 776.665 965.434 771.587 982.348V982.348M665.772 982.348L678.843 974.185C684.962 970.363 690.65 965.89 695.807 960.844L705.441 951.418C715.953 941.131 728.888 933.659 743.051 929.691L770.053 922.126C785.889 917.689 797.791 904.582 800.684 888.392V888.392C802.139 880.247 801.206 871.855 797.997 864.228L785.565 834.682C780.024 821.511 777.369 807.305 777.78 793.021L779.106 746.976C779.621 729.118 789.861 712.971 805.797 704.894L806.514 704.531C819.995 697.697 835.935 697.737 849.382 704.637V704.637C852.275 706.121 855.006 707.901 857.533 709.947L882.921 730.505C890.27 736.456 898.954 740.533 908.226 742.387L913.144 743.369C921.162 744.972 929.473 744.182 937.046 741.1L952.289 734.894C958.783 732.25 963.028 725.938 963.028 718.927V718.927C963.028 711.687 967.553 705.217 974.354 702.734L986.043 698.466C994.506 695.376 1003.83 695.666 1012.09 699.275L1016.15 701.05C1019.7 702.604 1023.44 703.704 1027.28 704.321L1034.72 705.521C1040.2 706.405 1045.82 705.832 1051.01 703.862L1053.77 702.812C1067.45 697.616 1074.95 682.879 1071.1 668.76V668.76C1068.8 660.322 1070.51 651.294 1075.74 644.284L1080.34 638.118C1089.99 625.177 1105.93 618.529 1121.92 620.78L1140.1 623.339C1143.64 623.837 1147.14 624.587 1150.57 625.583L1167 630.348M1151.68 861.304L1137.95 892.3C1132.95 903.574 1123.44 912.221 1111.74 916.118V916.118C1098.36 920.575 1083.65 918.319 1072.22 910.057L1063.13 903.491C1059.52 900.881 1055.66 898.644 1051.59 896.817L1039.91 891.564C1033.39 888.631 1026.09 887.913 1019.12 889.52L1018.76 889.604C1014.15 890.665 1009.37 890.665 1004.76 889.604L1002.12 888.994C996.655 887.735 990.924 888.449 985.938 891.011L984.145 891.933C975.435 896.409 970.931 906.274 973.253 915.787V915.787C975.102 923.362 972.639 931.339 966.841 936.553L962.203 940.725C957.767 944.714 954.738 950.03 953.567 955.88V955.88C952.474 961.34 949.761 966.344 945.781 970.238L918.474 996.957M1160.04 555.217V555.217C1151.72 557.064 1143.2 557.747 1134.69 557.247L1116.76 556.192C1105.88 555.553 1095.02 557.693 1085.19 562.412V562.412C1071.49 568.995 1060.57 580.228 1054.37 594.111L1045.85 613.205C1042.66 620.358 1037.82 626.652 1031.72 631.571L1027.68 634.834C1013.94 645.929 994.725 647.266 979.575 638.182V638.182C975.534 635.759 971.115 634.031 966.502 633.071L952.693 630.196C934.263 626.359 915.111 631.602 901.204 644.29L893.573 651.253C892.093 652.603 890.328 653.603 888.409 654.178V654.178C885.776 654.968 882.964 654.925 880.356 654.057L819.073 633.644C808.69 630.185 797.381 630.801 787.435 635.368V635.368C780.696 638.462 774.869 643.24 770.514 649.242L765.293 656.437C759.874 663.908 756.874 672.86 756.7 682.088V682.088C756.431 696.366 749.42 709.673 737.797 717.97L718.375 731.832C696.066 747.756 681.96 772.747 679.857 800.075L679.695 802.174L673.982 856.091C673.616 859.547 673.769 863.047 674.433 866.459V866.459C676.822 878.74 672.459 891.391 662.988 899.565V899.565L621.915 928.087L601.026 942.65C595.014 946.842 589.48 951.682 584.526 957.083L561.35 982.348M530.719 982.348L537.206 973.921C542.121 967.536 545.817 960.299 548.108 952.573L551.467 941.243C554.23 931.924 560.563 924.075 569.087 919.404L570.297 918.74C574.932 916.201 580.131 914.87 585.416 914.87V914.87C589.746 914.87 594.028 913.976 597.997 912.244L630.58 898.028C637.491 895.013 642.855 889.285 645.411 882.191V882.191C646.897 878.066 647.372 873.645 646.796 869.298L641.407 828.609L637.218 788.274C635.059 767.477 643.706 747.025 660.129 734.085V734.085C666.608 728.98 674.056 725.243 682.022 723.1L688.049 721.478L707.533 717.584C712.995 716.493 718.033 713.869 722.059 710.021V710.021C728.304 704.052 731.602 695.635 731.073 687.012L729.818 666.522L724.796 638.921C721.988 623.487 729.573 608.027 743.497 600.802V600.802C751.693 596.549 761.218 595.634 770.075 598.249L780.36 601.286C784.708 602.57 788.904 604.324 792.872 606.518L809.635 615.784C816.132 619.376 823.584 620.864 830.962 620.045L850.819 617.84C854.623 617.418 858.259 619.518 859.794 623.024V623.024C861.186 626.205 864.33 628.261 867.803 628.261H885.673C889.418 628.261 893.14 627.678 896.705 626.533L957.739 606.929C965.207 604.53 973.279 604.81 980.563 607.722L982.714 608.582C989.717 611.381 997.549 611.256 1004.46 608.235V608.235C1011.76 605.041 1017.38 598.9 1019.9 591.335L1026.33 572.058C1032.09 554.786 1045.27 540.992 1062.26 534.446L1081.58 527C1088.83 524.208 1097 525.279 1103.28 529.845V529.845C1111.04 535.478 1121.47 535.691 1129.45 530.378L1160.04 510M912.209 771.565L890.046 766.644C879.999 764.413 870.872 759.171 863.881 751.619L856.164 743.283C851.507 738.251 844.962 735.391 838.106 735.391V735.391C828.531 735.391 819.825 740.946 815.79 749.63L815.684 749.859C814.15 753.16 813.356 756.755 813.356 760.394V779.278C813.356 782.936 812.937 786.581 812.108 790.144L810.092 798.806C807.777 808.753 810.507 819.203 817.391 826.748L821.834 831.617C825.695 835.849 827.311 841.665 826.187 847.282L824.207 857.173C823.233 862.042 826.584 866.719 831.508 867.36V867.36C835.534 867.885 839.376 865.515 840.714 861.683L847.826 841.308C848.514 839.338 849.024 837.312 849.352 835.251L850.072 830.734C852.331 816.543 862.111 804.695 875.617 799.787V799.787C881.369 797.697 887.528 796.97 893.609 797.665L929.613 801.776C931.874 802.035 934.159 801.565 936.136 800.437V800.437C940.139 798.151 942.229 793.559 941.325 789.039L940.957 787.202C939.976 782.302 936.332 778.364 931.521 777.008L912.209 771.565ZM562.777 868.164L537.923 880.104C533.146 882.399 528.732 885.382 524.82 888.958L508.976 903.444C502.336 909.515 500.02 918.995 503.113 927.443L506.564 936.87C507.692 939.951 510.624 942 513.905 942V942C517.615 942 520.814 939.393 521.562 935.76L523.246 927.588C524.439 921.799 528.389 916.961 533.822 914.634L538.201 912.759C542.426 910.949 546.123 908.097 548.946 904.47L557.485 893.5C558.659 891.991 560.104 890.716 561.748 889.74L571.299 884.065C577.335 880.479 577.148 871.678 570.965 868.351V868.351C568.423 866.983 565.379 866.914 562.777 868.164ZM604.642 794.035L603.355 805.609C603.203 806.982 603.556 808.363 604.348 809.495V809.495C606.291 812.268 610.215 812.736 612.755 810.496L616.422 807.262C618.586 805.354 619.826 802.608 619.826 799.723V794.876C619.826 789.818 614.985 786.165 610.12 787.554V787.554C607.148 788.402 604.984 790.963 604.642 794.035Z" stroke="#008E8E"/>
</g>
</svg>
