<svg width="155" height="28" fill="none" xmlns="http://www.w3.org/2000/svg"><path fill-rule="evenodd" clip-rule="evenodd" d="M7.498 18.853a.794.794 0 00-.794.794v1.434c0 .44.356.794.794.794h24.97a.795.795 0 00.797-.794v-1.434a.795.795 0 00-.797-.794H7.498zm5.916 5.925a.718.718 0 00-.717.717v1.59c0 .394.322.716.717.716h13.14a.718.718 0 00.717-.717v-1.589a.718.718 0 00-.717-.717h-13.14zM19.952 0c-2.63 0-4.975.61-6.975 1.811-1.979 1.193-3.542 2.929-4.643 5.16-.884 1.783-1.43 3.783-1.63 5.956H.836A.838.838 0 000 13.72v1.44c.023.441.39.79.836.79H39.13a.836.836 0 00.836-.835v-1.349a.838.838 0 00-.836-.839h-5.867c-.325-3.783-1.63-6.894-3.884-9.226C26.998 1.246 23.83 0 19.952 0zm-7.229 5.787c1.777-2.405 4.212-3.623 7.229-3.623 3.062 0 5.521 1.234 7.313 3.674 1.363 1.857 2.174 4.24 2.42 7.09H10.37c.273-3.002 1.064-5.4 2.353-7.141z" fill="#FEC63D"/><path d="M46.152 21V7.68h5.616c.432 0 .87.054 1.314.162.456.096.87.3 1.242.612.384.3.69.756.918 1.368.24.612.36 1.422.36 2.43 0 1.008-.12 1.824-.36 2.448-.228.624-.528 1.098-.9 1.422-.372.324-.774.54-1.206.648a5.19 5.19 0 01-1.26.162c-.216 0-.468-.006-.756-.018a24.588 24.588 0 01-.882-.09c-.27-.034-.54-.064-.81-.09a57.074 57.074 0 01-.612-.09V21h-2.664zm2.664-6.462h2.646c.312 0 .576-.072.792-.216.228-.156.396-.396.504-.72.108-.336.162-.78.162-1.332 0-.54-.06-.966-.18-1.278-.108-.324-.27-.558-.486-.702a1.248 1.248 0 00-.738-.216h-2.7v4.464zM61.17 21.09c-.792 0-1.47-.078-2.034-.234-.564-.168-1.026-.444-1.386-.828-.348-.384-.606-.894-.774-1.53-.156-.636-.234-1.422-.234-2.358 0-.984.078-1.794.234-2.43.168-.648.426-1.152.774-1.512.36-.372.822-.63 1.386-.774.576-.156 1.254-.234 2.034-.234.804 0 1.488.078 2.052.234.564.156 1.02.42 1.368.792.36.36.618.864.774 1.512.168.636.252 1.44.252 2.412 0 .96-.078 1.764-.234 2.412-.156.636-.408 1.14-.756 1.512-.348.372-.81.636-1.386.792-.564.156-1.254.234-2.07.234zm0-2.124c.324 0 .594-.03.81-.09a.946.946 0 00.54-.36c.144-.192.252-.48.324-.864.072-.384.108-.888.108-1.512 0-.636-.036-1.14-.108-1.512-.072-.384-.18-.666-.324-.846a.918.918 0 00-.54-.378 3.082 3.082 0 00-.81-.09c-.312 0-.582.03-.81.09a.996.996 0 00-.54.378c-.144.18-.252.462-.324.846-.06.372-.09.876-.09 1.512 0 .624.03 1.128.09 1.512.072.384.18.672.324.864.144.18.324.3.54.36.228.06.498.09.81.09zm9.237 2.07c-.684 0-1.254-.108-1.71-.324a2.162 2.162 0 01-.99-1.026c-.216-.468-.324-1.068-.324-1.8V7.266h2.664V17.49c0 .36.036.648.108.864.072.204.18.354.324.45.156.096.348.162.576.198l.738.108v1.926h-1.386zM73.35 9.912c-.252 0-.378-.12-.378-.36V7.788c0-.252.126-.378.378-.378h2.052a.31.31 0 01.252.108c.06.072.09.162.09.27v1.764c0 .24-.114.36-.342.36H73.35zM73.026 21v-9.666h2.664V21h-2.664zm8.473.108a5.513 5.513 0 01-1.638-.234 3.11 3.11 0 01-1.278-.774c-.36-.372-.642-.87-.846-1.494-.192-.636-.288-1.434-.288-2.394 0-.984.09-1.8.27-2.448.18-.648.444-1.158.792-1.53a2.93 2.93 0 011.314-.81 6.028 6.028 0 011.746-.234c.588 0 1.146.036 1.674.108.54.06 1.104.174 1.692.342v1.53h-2.538c-.552 0-.996.084-1.332.252-.336.156-.582.456-.738.9-.144.432-.216 1.056-.216 1.872 0 .804.072 1.416.216 1.836.156.42.402.702.738.846.348.144.804.216 1.368.216h2.646v1.512c-.3.096-.648.186-1.044.27-.417.075-.838.129-1.26.162-.432.048-.858.072-1.278.072zm8.086 4.158L90.63 21c-.54 0-1.014-.102-1.422-.306a2.847 2.847 0 01-1.026-.864c-.264-.384-.468-.858-.612-1.422l-1.818-7.074h2.772l1.53 6.534c.06.228.138.408.234.54a.98.98 0 00.306.288c.108.048.204.084.288.108.096.012.168.018.216.018l1.746-7.488h2.7l-2.88 12.15-.864 1.782h-2.215z" fill="#FEC63D"/><path d="M99.275 21L96.09 7.68h2.754l2.142 9.396 2.502-9.396h2.448l2.484 9.396 2.142-9.396h2.754L110.129 21h-2.718l-2.7-9.396L101.993 21h-2.718zm16.883.108c-.732 0-1.326-.216-1.782-.648-.456-.432-.684-1.032-.684-1.8v-.864c0-.732.258-1.332.774-1.8.516-.48 1.32-.72 2.412-.72h2.466v-.666c0-.3-.054-.546-.162-.738-.108-.204-.312-.348-.612-.432-.288-.096-.732-.144-1.332-.144h-2.898v-1.548c.468-.144 1.008-.27 1.62-.378.624-.108 1.374-.162 2.25-.162.804 0 1.488.096 2.052.288.576.192 1.008.522 1.296.99.3.468.45 1.116.45 1.944V21h-2.106l-.432-1.026a1.815 1.815 0 01-.432.324c-.204.12-.456.246-.756.378-.288.12-.618.222-.99.306-.36.084-.738.126-1.134.126zm1.35-1.854c.12 0 .252-.012.396-.036l.468-.108.45-.126c.116-.038.23-.08.342-.126a2.5 2.5 0 00.18-.072v-2.25l-1.62.108c-.468.036-.816.156-1.044.36-.216.204-.324.48-.324.828v.396c0 .24.048.438.144.594.108.156.246.27.414.342.18.06.378.09.594.09zm8.997 6.21c-.612 0-1.158-.09-1.638-.27-.468-.18-.84-.444-1.116-.792-.276-.336-.414-.756-.414-1.26v-.288c0-.516.144-.96.432-1.332.3-.36.684-.636 1.152-.828a3.899 3.899 0 011.494-.288l.792.828c-.264 0-.498.042-.702.126a1.152 1.152 0 00-.486.36 1.108 1.108 0 00-.162.612v.198c0 .348.12.612.36.792.24.18.582.27 1.026.27h1.836c.444 0 .798-.09 1.062-.27.276-.168.414-.426.414-.774v-.288a.954.954 0 00-.162-.558.958.958 0 00-.45-.342c-.192-.084-.456-.126-.792-.126h-2.142c-1.08 0-1.884-.198-2.412-.594-.516-.408-.774-.906-.774-1.494 0-.492.138-.9.414-1.224.288-.336.684-.558 1.188-.666a2.852 2.852 0 01-.918-.738c-.228-.3-.39-.618-.486-.954a4.02 4.02 0 01-.144-1.08c0-.708.144-1.296.432-1.764.3-.468.744-.816 1.332-1.044.6-.228 1.35-.342 2.25-.342h5.238v1.458l-1.476.27c.108.12.216.264.324.432.108.156.198.366.27.63.084.252.126.57.126.954 0 .552-.12 1.05-.36 1.494-.228.444-.6.798-1.116 1.062-.504.264-1.176.396-2.016.396h-1.71c-.324 0-.588.048-.792.144-.204.096-.306.27-.306.522 0 .204.084.348.252.432.18.072.378.108.594.108h2.664c.744 0 1.374.096 1.89.288.516.192.912.504 1.188.936.276.42.414.978.414 1.674v.27c0 .948-.3 1.692-.9 2.232-.6.552-1.524.828-2.772.828h-2.898zm1.044-9.432h1.026c.372 0 .654-.054.846-.162a.914.914 0 00.414-.468c.084-.204.126-.438.126-.702 0-.336-.054-.606-.162-.81a.844.844 0 00-.432-.432 1.8 1.8 0 00-.72-.126h-1.008c-.456 0-.798.102-1.026.306-.228.192-.342.534-.342 1.026 0 .468.108.816.324 1.044.216.216.534.324.954.324zm11.07 5.058c-.792 0-1.47-.078-2.034-.234-.564-.168-1.026-.444-1.386-.828-.348-.384-.606-.894-.774-1.53-.156-.636-.234-1.422-.234-2.358 0-.984.078-1.794.234-2.43.168-.648.426-1.152.774-1.512.36-.372.822-.63 1.386-.774.576-.156 1.254-.234 2.034-.234.804 0 1.488.078 2.052.234.564.156 1.02.42 1.368.792.36.36.618.864.774 1.512.168.636.252 1.44.252 2.412 0 .96-.078 1.764-.234 2.412-.156.636-.408 1.14-.756 1.512-.348.372-.81.636-1.386.792-.564.156-1.254.234-2.07.234zm0-2.124c.324 0 .594-.03.81-.09a.945.945 0 00.54-.36c.144-.192.252-.48.324-.864.072-.384.108-.888.108-1.512 0-.636-.036-1.14-.108-1.512-.072-.384-.18-.666-.324-.846a.917.917 0 00-.54-.378 3.082 3.082 0 00-.81-.09c-.312 0-.582.03-.81.09a.997.997 0 00-.54.378c-.144.18-.252.462-.324.846-.06.372-.09.876-.09 1.512 0 .624.03 1.128.09 1.512.072.384.18.672.324.864.144.18.324.3.54.36.228.06.498.09.81.09zM144.833 21v-9.666h2.196l.468.99c.36-.3.81-.564 1.35-.792a4.207 4.207 0 011.692-.36c.792 0 1.404.156 1.836.468.432.312.732.732.9 1.26.18.516.27 1.092.27 1.728V21h-2.664v-6.03c0-.312-.06-.57-.18-.774a1.101 1.101 0 00-.468-.468 1.558 1.558 0 00-.738-.162c-.489 0-.97.116-1.404.342-.208.11-.406.237-.594.378V21h-2.664z" fill="#000"/></svg>